<svg width="60" height="60" viewBox="0 0 60 60" fill="none" xmlns="http://www.w3.org/2000/svg">
<path d="M41.7986 30.3936C40.4919 31.0033 39.0608 31.0259 37.8044 30.569C36.548 30.1121 35.4658 29.1753 34.8557 27.8686C33.6369 25.2552 34.7677 22.1459 37.3807 20.9258C38.688 20.3164 40.1191 20.2937 41.3752 20.7505C42.6316 21.2075 43.7139 22.1443 44.3236 23.4508C44.3305 23.4658 44.3352 23.4818 44.3419 23.4963L49.9834 25.548L52.3711 19.6952L34.0678 13.8252L12.2937 23.986C9.69013 25.2014 8.55396 28.3254 9.7687 30.9287L16.3949 45.1294C17.609 47.7333 20.734 48.869 23.3377 47.6544L45.1118 37.4936L47.2199 32.325L41.8437 30.3698C41.828 30.3768 41.8147 30.3867 41.7986 30.3936ZM26.344 39.9107L25.8601 38.8736C25.6312 38.9284 25.4016 38.9713 25.1738 38.9908C24.5925 39.0423 24.0157 38.9748 23.485 38.7818C22.607 38.4687 21.8819 37.792 21.4915 36.9389L23.8575 35.8332C23.9915 36.1053 24.143 36.2356 24.3777 36.3271C24.5216 36.3791 24.7067 36.4096 24.9475 36.3882C25.1871 36.368 25.482 36.2937 25.8193 36.1372C26.2559 35.9335 26.6167 35.708 26.8602 35.4957C27.1082 35.2819 27.2267 35.0967 27.2736 34.9645C27.3034 34.8795 27.315 34.8093 27.3088 34.709C27.3015 34.6086 27.2724 34.4712 27.184 34.2813C27.088 34.0762 26.9981 33.9651 26.9238 33.8943C26.848 33.8245 26.7838 33.7856 26.6848 33.7488C26.5668 33.7055 26.3889 33.6734 26.1449 33.6746C25.9023 33.6744 25.6022 33.7075 25.2678 33.7635C24.5952 33.8717 23.8095 34.078 22.9541 34.155C22.3846 34.2019 21.7583 34.1959 21.1051 33.9618C20.7387 33.8297 20.3722 33.6158 20.0612 33.3228C19.7489 33.0301 19.4962 32.6663 19.3078 32.2613C19.1306 31.8816 19.0131 31.4531 18.9802 30.9883C18.9481 30.5241 19.0052 30.0207 19.1863 29.5228C19.3611 29.0389 19.6552 28.565 20.0619 28.1515C20.2309 27.9788 20.424 27.8191 20.6296 27.6683L20.1574 26.6555L22.524 25.5512L23.015 26.6041C23.2042 26.5624 23.3916 26.5271 23.5776 26.5059C24.2191 26.4329 24.8496 26.4905 25.4269 26.7004C25.8606 26.8578 26.2578 27.1023 26.5872 27.412C26.9177 27.723 27.1789 28.0964 27.3672 28.4999L25.0012 29.6056C24.9391 29.4736 24.8703 29.3835 24.7975 29.314C24.7237 29.246 24.6447 29.1956 24.5342 29.1542C24.3882 29.1015 24.1775 29.0668 23.8704 29.1009C23.5656 29.135 23.1704 29.2421 22.7014 29.4613C22.3271 29.6365 22.0845 29.8185 21.9267 29.9794C21.768 30.1419 21.6891 30.283 21.6404 30.415C21.5917 30.5488 21.5772 30.6793 21.5852 30.8086C21.5938 30.9374 21.6295 31.0632 21.6739 31.1565C21.7446 31.3063 21.8035 31.3758 21.848 31.4175C21.8933 31.4592 21.9286 31.4806 21.9967 31.5065C22.0857 31.54 22.2441 31.5693 22.4775 31.5651C22.7092 31.5624 23.0056 31.5268 23.3383 31.4691C24.0099 31.3558 24.8098 31.1489 25.6876 31.0797C26.2725 31.0376 26.9154 31.0555 27.576 31.2934C27.9782 31.4382 28.3767 31.673 28.7173 31.9966C29.0589 32.3185 29.3372 32.7206 29.5495 33.1763C29.7532 33.6129 29.8817 34.0698 29.9129 34.529C29.9455 34.9883 29.8769 35.4457 29.7262 35.8568C29.4834 36.5211 29.0537 37.0492 28.5672 37.4709C28.4535 37.5684 28.3356 37.66 28.2155 37.7482L28.7084 38.8045L26.344 39.9107Z" fill="url(#paint0_linear_1271_29252)"/>
<path d="M42.1507 25.2005C42.1118 24.9824 42.0552 24.7648 41.9572 24.5547C41.6626 23.9234 41.1393 23.4434 40.4831 23.2048C39.8274 22.9663 39.1172 22.9977 38.4851 23.2923C37.1804 23.9011 36.6141 25.4582 37.2237 26.764C37.5176 27.3951 38.0415 27.8753 38.6977 28.1139C39.3535 28.3524 40.0632 28.3209 40.6947 28.026C40.9048 27.9279 41.089 27.7979 41.2587 27.6553L54.4167 32.4411L55.3097 29.9867L42.1507 25.2005Z" fill="url(#paint1_linear_1271_29252)"/>
<defs>
<linearGradient id="paint0_linear_1271_29252" x1="45.3791" y1="57.292" x2="3.56718" y2="40.9304" gradientUnits="userSpaceOnUse">
<stop stop-color="#4433F1"/>
<stop offset="1" stop-color="#628EFF"/>
</linearGradient>
<linearGradient id="paint1_linear_1271_29252" x1="45.3791" y1="57.292" x2="3.56718" y2="40.9304" gradientUnits="userSpaceOnUse">
<stop stop-color="#4433F1"/>
<stop offset="1" stop-color="#628EFF"/>
</linearGradient>
</defs>
</svg>
