<svg width="60" height="60" viewBox="0 0 60 60" fill="none" xmlns="http://www.w3.org/2000/svg">
<path d="M52.4258 9.28319C52.5379 8.49536 52.2731 7.70048 51.7106 7.13768C51.199 6.64682 50.4939 6.41246 49.7904 6.49917C35.333 8.25597 27.053 14.7311 22.3199 21.1057L20.1071 20.9906H20.1074C18.4969 20.9075 16.927 21.5112 15.7872 22.6516L12.3312 26.1076C12.2468 26.1923 12.21 26.3135 12.2331 26.4307C12.2562 26.5482 12.3362 26.6467 12.4464 26.6929L17.9569 28.9777C17.3351 30.5457 16.8393 32.1602 16.4736 33.8065C16.344 34.3998 16.5248 35.0182 16.9537 35.4481L23.4912 41.9667C23.9214 42.3953 24.5398 42.5761 25.1328 42.4465C26.7791 42.0809 28.3939 41.585 29.9616 40.9633L32.2464 46.4737C32.2929 46.5839 32.3913 46.6639 32.5085 46.687C32.6261 46.7101 32.7473 46.6733 32.832 46.5889L36.288 43.1329C37.4281 41.9928 38.0314 40.4232 37.9487 38.8131L37.8335 36.6003C44.1938 31.9201 50.6401 23.6549 52.4255 9.28316L52.4258 9.28319ZM34.1858 29.1312C33.6052 29.7121 32.8177 30.0382 31.9967 30.0386C31.1754 30.0386 30.3879 29.7124 29.807 29.1319C29.2264 28.5513 28.9003 27.7638 28.9003 26.9425C28.9003 26.1212 29.2264 25.3336 29.807 24.7531C30.3879 24.1725 31.1754 23.8464 31.9967 23.8464C32.8177 23.8467 33.6052 24.1728 34.1858 24.7538C34.7654 25.3333 35.0911 26.1195 35.0921 26.9391C35.0932 27.7587 34.7687 28.5456 34.1904 29.1266L34.1858 29.1312ZM36.1056 22.853C35.3409 22.0889 34.9109 21.0523 34.9107 19.9712C34.9103 18.89 35.3392 17.8531 36.1036 17.0887C36.868 16.3239 37.9047 15.8943 38.9858 15.8943C40.0669 15.8943 41.1035 16.3239 41.8679 17.0887C42.6323 17.8531 43.0612 18.89 43.0609 19.9712C43.0606 21.0523 42.6307 22.0889 41.866 22.853C41.1005 23.62 40.0612 24.0506 38.9778 24.0496C37.894 24.0486 36.8554 23.6164 36.0913 22.8479L36.1056 22.853ZM11.2322 43.1475C10.2645 42.8104 9.22663 42.728 8.21778 42.9078C8.04333 42.9389 7.8642 42.8834 7.73797 42.7588C7.5719 42.5957 7.52569 42.3463 7.62279 42.1347C8.6691 39.8164 11.5493 35.1553 16.7094 38.9187C16.7633 38.9679 16.7944 39.0376 16.7944 39.1109C16.7944 39.1839 16.7633 39.2535 16.7094 39.3027C15.2961 40.4103 14.4972 42.126 14.5588 43.9203C14.5662 44.1345 14.7383 44.3066 14.9525 44.314C16.7341 44.3853 18.444 43.6069 19.5604 42.2163C19.6096 42.1571 19.6826 42.1229 19.7596 42.1229C19.8366 42.1229 19.9096 42.1571 19.9588 42.2163C20.6787 43.0754 22.6565 45.8642 20.4677 48.5618C19.5038 49.7143 18.1236 50.4388 16.6277 50.5778C14.4915 50.8129 10.5653 51.4852 8.94748 53.3331C8.81724 53.4932 8.60831 53.5672 8.40607 53.5247C8.20417 53.4825 8.04246 53.3308 7.98755 53.1316C7.44045 51.1923 6.58132 46.8725 11.2323 43.1476L11.2322 43.1475Z" fill="url(#paint0_linear_1271_29260)"/>
<defs>
<linearGradient id="paint0_linear_1271_29260" x1="52.4511" y1="53.5365" x2="6.63368" y2="52.6298" gradientUnits="userSpaceOnUse">
<stop stop-color="#4433F1"/>
<stop offset="1" stop-color="#628EFF"/>
</linearGradient>
</defs>
</svg>
