<svg width="110" height="111" viewBox="0 0 110 111" fill="none" xmlns="http://www.w3.org/2000/svg">
<g filter="url(#filter0_bddi_592_1024)">
<rect x="15.073" y="14" width="79.6039" height="79.6039" rx="18" fill="white" fill-opacity="0.1" shape-rendering="crispEdges"/>
<rect x="16.1338" y="15.0608" width="77.4823" height="77.4823" rx="16.9392" stroke="url(#paint0_linear_592_1024)" stroke-width="2.12164" shape-rendering="crispEdges"/>
<path d="M73.1255 57.3014C72.9942 57.3999 72.8447 57.4715 72.6857 57.5123C72.5267 57.553 72.3612 57.562 72.1987 57.5388C72.0362 57.5156 71.8799 57.4606 71.7386 57.377C71.5974 57.2933 71.474 57.1827 71.3755 57.0514C70.6221 56.0387 69.6414 55.217 68.5124 54.6525C67.3834 54.088 66.1377 53.7965 64.8755 53.8014C64.6297 53.8014 64.3893 53.7289 64.1845 53.593C63.9797 53.4571 63.8195 53.2638 63.7239 53.0373C63.659 52.8835 63.6256 52.7183 63.6256 52.5514C63.6256 52.3845 63.659 52.2192 63.7239 52.0654C63.8195 51.839 63.9797 51.6457 64.1845 51.5098C64.3893 51.3739 64.6297 51.3014 64.8755 51.3014C65.5768 51.3013 66.2641 51.1046 66.8593 50.7335C67.4544 50.3624 67.9336 49.8318 68.2423 49.2021C68.551 48.5723 68.677 47.8686 68.6058 47.1709C68.5346 46.4731 68.2692 45.8093 67.8397 45.2549C67.4102 44.7004 66.8338 44.2775 66.1759 44.0342C65.5181 43.7909 64.8053 43.737 64.1183 43.8785C63.4314 44.0201 62.7979 44.3514 62.2899 44.835C61.7818 45.3185 61.4196 45.9348 61.2442 46.6139C61.2032 46.7729 61.1312 46.9223 61.0325 47.0535C60.9337 47.1847 60.81 47.2952 60.6686 47.3786C60.5271 47.462 60.3706 47.5168 60.208 47.5397C60.0454 47.5627 59.8798 47.5534 59.7208 47.5123C59.5618 47.4713 59.4124 47.3993 59.2812 47.3006C59.15 47.2018 59.0395 47.0781 58.9561 46.9367C58.8726 46.7952 58.8179 46.6387 58.7949 46.4761C58.772 46.3135 58.7813 46.1479 58.8223 45.9889C59.0657 45.0472 59.5255 44.1753 60.1651 43.4426C60.8048 42.7098 61.6066 42.1365 62.5068 41.7682C63.407 41.3999 64.3807 41.2467 65.3505 41.321C66.3203 41.3952 67.2594 41.6947 68.0931 42.1958C68.9268 42.6968 69.632 43.3855 70.1526 44.207C70.6733 45.0286 70.995 45.9603 71.0922 46.9281C71.1895 47.8958 71.0595 48.8729 70.7126 49.7816C70.3657 50.6903 69.8116 51.5055 69.0942 52.1623C70.7939 52.8983 72.2715 54.0661 73.3802 55.5498C73.4786 55.6815 73.5502 55.8313 73.5907 55.9906C73.6312 56.15 73.6399 56.3157 73.6162 56.4784C73.5926 56.6412 73.537 56.7976 73.4528 56.9388C73.3686 57.08 73.2574 57.2032 73.1255 57.3014ZM64.7067 66.9264C64.7972 67.0687 64.8579 67.2278 64.8853 67.3941C64.9126 67.5605 64.906 67.7306 64.8659 67.8944C64.8258 68.0581 64.753 68.2121 64.6519 68.3469C64.5507 68.4818 64.4233 68.5948 64.2774 68.6792C64.1314 68.7636 63.9699 68.8175 63.8026 68.8379C63.6352 68.8582 63.4655 68.8445 63.3036 68.7975C63.1416 68.7505 62.9909 68.6713 62.8604 68.5645C62.7299 68.4578 62.6224 68.3258 62.5442 68.1764C61.7568 66.8431 60.6353 65.7381 59.2905 64.9705C57.9457 64.2028 56.424 63.7991 54.8755 63.7991C53.327 63.7991 51.8053 64.2028 50.4604 64.9705C49.1156 65.7381 47.9942 66.8431 47.2067 68.1764C47.1286 68.3258 47.021 68.4578 46.8905 68.5645C46.76 68.6713 46.6093 68.7505 46.4474 68.7975C46.2855 68.8445 46.1157 68.8582 45.9484 68.8379C45.781 68.8175 45.6195 68.7636 45.4736 68.6792C45.3276 68.5948 45.2002 68.4818 45.0991 68.3469C44.9979 68.2121 44.9251 68.0581 44.885 67.8944C44.8449 67.7306 44.8383 67.5605 44.8657 67.3941C44.8931 67.2278 44.9538 67.0687 45.0442 66.9264C46.2561 64.8442 48.1039 63.2056 50.3161 62.2514C49.0713 61.2983 48.1565 59.9791 47.7002 58.4792C47.2439 56.9794 47.2691 55.3742 47.7722 53.8894C48.2754 52.4045 49.2312 51.1147 50.5053 50.2012C51.7794 49.2877 53.3077 48.7964 54.8755 48.7964C56.4432 48.7964 57.9716 49.2877 59.2457 50.2012C60.5198 51.1147 61.4756 52.4045 61.9787 53.8894C62.4819 55.3742 62.5071 56.9794 62.0508 58.4792C61.5945 59.9791 60.6796 61.2983 59.4348 62.2514C61.647 63.2056 63.4949 64.8442 64.7067 66.9264ZM54.8755 61.3014C55.8644 61.3014 56.8311 61.0081 57.6533 60.4587C58.4756 59.9093 59.1164 59.1284 59.4949 58.2148C59.8733 57.3012 59.9723 56.2958 59.7794 55.3259C59.5865 54.356 59.1103 53.4651 58.411 52.7659C57.7117 52.0666 56.8208 51.5904 55.8509 51.3975C54.881 51.2045 53.8757 51.3035 52.9621 51.682C52.0484 52.0604 51.2675 52.7013 50.7181 53.5235C50.1687 54.3458 49.8755 55.3125 49.8755 56.3014C49.8755 57.6275 50.4023 58.8992 51.3399 59.8369C52.2776 60.7746 53.5494 61.3014 54.8755 61.3014ZM46.1255 52.5514C46.1255 52.2199 45.9938 51.9019 45.7594 51.6675C45.5249 51.4331 45.207 51.3014 44.8755 51.3014C44.1741 51.3013 43.4868 51.1046 42.8917 50.7335C42.2965 50.3624 41.8174 49.8318 41.5086 49.2021C41.1999 48.5723 41.074 47.8686 41.1452 47.1709C41.2163 46.4731 41.4817 45.8093 41.9113 45.2549C42.3408 44.7004 42.9172 44.2775 43.575 44.0342C44.2328 43.7909 44.9457 43.737 45.6326 43.8785C46.3195 44.0201 46.953 44.3514 47.4611 44.835C47.9691 45.3185 48.3314 45.9348 48.5067 46.6139C48.5896 46.935 48.7967 47.2101 49.0824 47.3786C49.3681 47.5471 49.709 47.5952 50.0302 47.5123C50.3513 47.4294 50.6264 47.2224 50.7949 46.9367C50.9634 46.651 51.0115 46.31 50.9286 45.9889C50.6852 45.0472 50.2254 44.1753 49.5858 43.4426C48.9462 42.7098 48.1444 42.1365 47.2442 41.7682C46.3439 41.3999 45.3702 41.2467 44.4004 41.321C43.4306 41.3952 42.4915 41.6947 41.6579 42.1958C40.8242 42.6968 40.119 43.3855 39.5983 44.207C39.0777 45.0286 38.7559 45.9603 38.6587 46.9281C38.5615 47.8958 38.6915 48.8729 39.0384 49.7816C39.3852 50.6903 39.9394 51.5055 40.6567 52.1623C38.9587 52.899 37.4828 54.0667 36.3755 55.5498C36.1764 55.815 36.0907 56.1485 36.1375 56.4768C36.1842 56.8052 36.3595 57.1015 36.6247 57.3006C36.8899 57.4997 37.2234 57.5853 37.5517 57.5386C37.88 57.4919 38.1764 57.3166 38.3755 57.0514C39.1289 56.0387 40.1096 55.217 41.2385 54.6525C42.3675 54.088 43.6133 53.7965 44.8755 53.8014C45.207 53.8014 45.5249 53.6697 45.7594 53.4353C45.9938 53.2008 46.1255 52.8829 46.1255 52.5514Z" fill="#343330"/>
</g>
<defs>
<filter id="filter0_bddi_592_1024" x="-52.0328" y="-53.1058" width="213.816" height="213.815" filterUnits="userSpaceOnUse" color-interpolation-filters="sRGB">
<feFlood flood-opacity="0" result="BackgroundImageFix"/>
<feGaussianBlur in="BackgroundImageFix" stdDeviation="33.5529"/>
<feComposite in2="SourceAlpha" operator="in" result="effect1_backgroundBlur_592_1024"/>
<feColorMatrix in="SourceAlpha" type="matrix" values="0 0 0 0 0 0 0 0 0 0 0 0 0 0 0 0 0 0 127 0" result="hardAlpha"/>
<feOffset dy="5.6577"/>
<feGaussianBlur stdDeviation="4.45544"/>
<feComposite in2="hardAlpha" operator="out"/>
<feColorMatrix type="matrix" values="0 0 0 0 0 0 0 0 0 0 0 0 0 0 0 0 0 0 0.08 0"/>
<feBlend mode="normal" in2="effect1_backgroundBlur_592_1024" result="effect2_dropShadow_592_1024"/>
<feColorMatrix in="SourceAlpha" type="matrix" values="0 0 0 0 0 0 0 0 0 0 0 0 0 0 0 0 0 0 127 0" result="hardAlpha"/>
<feOffset dy="1.41443"/>
<feGaussianBlur stdDeviation="7.49646"/>
<feComposite in2="hardAlpha" operator="out"/>
<feColorMatrix type="matrix" values="0 0 0 0 0 0 0 0 0 0 0 0 0 0 0 0 0 0 0.04 0"/>
<feBlend mode="normal" in2="effect2_dropShadow_592_1024" result="effect3_dropShadow_592_1024"/>
<feBlend mode="normal" in="SourceGraphic" in2="effect3_dropShadow_592_1024" result="shape"/>
<feColorMatrix in="SourceAlpha" type="matrix" values="0 0 0 0 0 0 0 0 0 0 0 0 0 0 0 0 0 0 127 0" result="hardAlpha"/>
<feOffset dy="-7.07213"/>
<feGaussianBlur stdDeviation="2.89957"/>
<feComposite in2="hardAlpha" operator="arithmetic" k2="-1" k3="1"/>
<feColorMatrix type="matrix" values="0 0 0 0 1 0 0 0 0 1 0 0 0 0 1 0 0 0 0.4 0"/>
<feBlend mode="normal" in2="shape" result="effect4_innerShadow_592_1024"/>
</filter>
<linearGradient id="paint0_linear_592_1024" x1="15.073" y1="93.6039" x2="111.163" y2="54.0462" gradientUnits="userSpaceOnUse">
<stop stop-color="white" stop-opacity="0.18"/>
<stop offset="0.5" stop-color="white" stop-opacity="0.5"/>
<stop offset="1" stop-color="white" stop-opacity="0"/>
</linearGradient>
</defs>
</svg>
